<?xml version="1.0" encoding="iso-8859-1"?>
<!-- Generator: Adobe Illustrator 19.0.0, SVG Export Plug-In . SVG Version: 6.00 Build 0)  -->
<svg version="1.1" id="Capa_1" xmlns="http://www.w3.org/2000/svg" xmlns:xlink="http://www.w3.org/1999/xlink" x="0px" y="0px"
	 viewBox="0 0 512 512" style="enable-background:new 0 0 512 512;" xml:space="preserve">
<g>
	<path style="fill:#FFD15C;" d="M163.972,183.777h-54.92c-1.987,0-3.796,1.144-4.648,2.939l-78.77,165.936
		c-1.621,3.414,0.869,7.352,4.648,7.352h32.222c3.787,0,6.277,3.953,4.64,7.369L8.476,489.816c-2.683,5.599,5.01,10.279,8.749,5.321
		l125.483-166.401c2.557-3.39,0.138-8.244-4.108-8.244h-36.752c-3.975,0-6.449-4.316-4.44-7.746l71.004-121.224
		C170.421,188.093,167.947,183.777,163.972,183.777z"/>
	<path style="fill:#FFD15C;" d="M409.557,0h-89.934c-1.987,0-3.796,1.144-4.648,2.939L192.587,260.763
		c-1.621,3.414,0.869,7.352,4.648,7.352h60.622c2.353,0,3.9,2.456,2.883,4.579L148.285,507.392
		c-1.667,3.479,3.113,6.387,5.436,3.306l222.046-294.452c2.557-3.39,0.138-8.244-4.108-8.244H305.68
		c-3.975,0-6.449-4.316-4.44-7.746L413.997,7.746C416.007,4.316,413.533,0,409.557,0z"/>
	<path style="fill:#FFD15C;" d="M498.927,183.777h-54.921c-1.987,0-3.796,1.144-4.648,2.939l-78.769,165.936
		c-1.621,3.414,0.869,7.352,4.648,7.352h32.222c3.787,0,6.277,3.953,4.64,7.369L343.43,489.816
		c-2.683,5.599,5.01,10.279,8.749,5.321l125.483-166.401c2.557-3.39,0.138-8.244-4.108-8.244h-36.752
		c-3.975,0-6.449-4.316-4.44-7.746l71.004-121.224C505.376,188.093,502.902,183.777,498.927,183.777z"/>
</g>
<g>
	<path style="fill:#E8B44D;" d="M97.92,312.302c-2.099,3.575,0.484,8.086,4.64,8.086h35.788c4.425,0,6.955,5.06,4.285,8.603
		L19.13,492.783c-0.301,0.398-0.624,0.732-0.969,1.012l93.788-143.035c2.67-4.07,0.151-9.894-4.285-9.894H71.876
		c-4.156,0-6.729-5.19-4.64-9.303c0,0,71.377-141.794,70.91-143.388c-0.616-2.1,0.838-4.222,3.027-4.222h22.554
		c4.156,0,6.74,4.5,4.64,8.086L97.92,312.302z"/>
	<path style="fill:#E8B44D;" d="M301.334,200.038c-2.099,3.585,0.485,8.086,4.641,8.086h64.955c4.436,0,6.955,5.071,4.285,8.613
		L167.053,492.783c-2.293,3.026,169.467-258.84,169.467-258.84c2.67-3.898,0.151-9.485-4.285-9.485H267.28
		c-4.145,0-6.729-4.963-4.64-8.904L374.752,4.72c0.721-1.356,0.893-2.821,0.624-4.177h33.431c4.156,0,6.74,4.511,4.64,8.097
		L301.334,200.038z"/>
	<path style="fill:#E8B44D;" d="M432.192,312.302c-2.099,3.575,0.485,8.086,4.641,8.086h35.788c4.425,0,6.955,5.06,4.285,8.603
		L361.272,482.328l84.938-130.416c2.67-4.102,0.14-9.97-4.296-9.97h-35.788c-4.145,0-6.729-5.222-4.63-9.367
		c0,0,71.732-148.622,73.917-148.622h22.584c4.156,0,6.729,4.5,4.64,8.086L432.192,312.302z"/>
</g>
<g>
</g>
<g>
</g>
<g>
</g>
<g>
</g>
<g>
</g>
<g>
</g>
<g>
</g>
<g>
</g>
<g>
</g>
<g>
</g>
<g>
</g>
<g>
</g>
<g>
</g>
<g>
</g>
<g>
</g>
</svg>
